<svg xmlns="http://www.w3.org/2000/svg" width="1200" height="630" viewBox="0 0 1200 630">
  <defs>
    <linearGradient id="bg" x1="0" y1="0" x2="1200" y2="630" gradientUnits="userSpaceOnUse">
      <stop stop-color="#06090F"/><stop offset="1" stop-color="#0E1626"/>
    </linearGradient>
    <linearGradient id="g" x1="0" y1="0" x2="1" y2="1">
      <stop stop-color="#2DD4BF"/><stop offset="1" stop-color="#5AA9FF"/>
    </linearGradient>
  </defs>
  <rect width="1200" height="630" fill="url(#bg)"/>
  <circle cx="1030" cy="120" r="260" fill="#2DD4BF" opacity="0.10"/>
  <circle cx="160" cy="560" r="220" fill="#5AA9FF" opacity="0.09"/>
  <g transform="translate(84,84)">
    <path d="M28 4 4 12v20c0 14 11 24 24 28 13-4 24-14 24-28V12L28 4Z" stroke="url(#g)"
          stroke-width="3.4" fill="none" stroke-linejoin="round"/>
    <path d="M19 42V22l18 19V21" stroke="#E8EFF9" stroke-width="4" fill="none"
          stroke-linecap="round" stroke-linejoin="round"/>
  </g>
  <text x="160" y="128" fill="#FFFFFF" font-family="Space Grotesk, Inter, sans-serif"
        font-size="42" font-weight="700">NPS</text>
  <text x="160" y="158" fill="#6F8098" font-family="JetBrains Mono, monospace"
        font-size="17" letter-spacing="3">SECURITY ADVISORY</text>
  <text x="84" y="330" fill="#E8EFF9" font-family="Space Grotesk, Inter, sans-serif"
        font-size="62" font-weight="600">Security advice from people</text>
  <text x="84" y="404" fill="#E8EFF9" font-family="Space Grotesk, Inter, sans-serif"
        font-size="62" font-weight="600">who have run the program.</text>
  <text x="84" y="482" fill="#A9B8CC" font-family="Inter, sans-serif" font-size="27">
    vCISO &#183; Risk &amp; Strategy &#183; SOC 2 / ISO 27001 / CMMC &#183; AppSec &#183; AI Governance</text>
  <rect x="84" y="536" width="184" height="4" rx="2" fill="url(#g)"/>
</svg>